<svg aria-hidden="true" style="position:absolute;width:0;height:0;overflow:hidden" xmlns="http://www.w3.org/2000/svg"><defs><symbol id="icon-email" viewBox="0 0 30 30"><path d="M25 5H5a2.497 2.497 0 0 0-2.488 2.5l-.013 15c0 1.375 1.125 2.5 2.5 2.5h20c1.375 0 2.5-1.125 2.5-2.5v-15c0-1.375-1.125-2.5-2.5-2.5zm-.5 5.313-8.837 5.525c-.4.25-.925.25-1.325 0l-8.837-5.525c-.313-.2-.5-.538-.5-.9 0-.838.913-1.337 1.625-.9l8.375 5.237 8.375-5.237a1.061 1.061 0 1 1 1.125 1.8z"/></symbol><symbol id="icon-phone" viewBox="0 0 30 30"><path d="m23.327 18.538-3.063-.35a2.4 2.4 0 0 0-1.978.688l-2.219 2.219a18.142 18.142 0 0 1-7.948-7.949l2.231-2.231a2.398 2.398 0 0 0 .687-1.978l-.35-3.039a2.414 2.414 0 0 0-2.4-2.135H6.2c-1.363 0-2.497 1.134-2.412 2.497.639 10.3 8.877 18.526 19.165 19.166 1.363.084 2.497-1.049 2.497-2.412v-2.086a2.391 2.391 0 0 0-2.123-2.388z"/></symbol><symbol id="icon-name" viewBox="0 0 30 30"><path d="M15 15c2.762 0 5-2.237 5-5s-2.237-5-5-5c-2.762 0-5 2.237-5 5s2.237 5 5 5zm0 2.5c-3.338 0-10 1.675-10 5v1.25c0 .688.562 1.25 1.25 1.25h17.5c.688 0 1.25-.563 1.25-1.25V22.5c0-3.325-6.662-5-10-5z"/></symbol></defs></svg>